<svg
  xmlns="http://www.w3.org/2000/svg"
  viewBox="0 55 155 280"
  fill="none"
  style="display:block"
>
  <path
    fill="#38bdf8"
    d="M150 187c0-12.9-4.36-24.8-11.68-34.2 3.19 5.08 5.54 10.8 6.82 17.02 5.26 25.84-9.94 51.09-34.52 58.93 20.7-9.84 32.85-32.84 28.09-56.33-.35-1.71-.78-3.39-1.29-5 .23 2.08.36 4.2.36 6.35 0 30.93-25.07 56-56 56-13.03 0-25.02-4.46-34.52-11.91 10.01 15.2 27.24 25.26 46.8 25.26 30.93 0 56-25.07 56-56Z"
  />
  <path
    fill="#2563eb"
    d="M75.85 262.5c12.89 0 24.76-4.36 34.23-11.68-5.08 3.19-10.8 5.54-17.02 6.82-25.84 5.26-51.09-9.94-58.93-34.52 9.86 20.7 32.86 32.85 56.33 28.09 1.71-.35 3.39-.78 5-1.29-2.08.23-4.2.36-6.35.36-30.93 0-56-25.07-56-56 0-13.03 4.46-25.02 11.91-34.53-15.2 10.01-25.26 27.23-25.26 46.8 0 30.93 25.07 56 56 56Z"
  />
  <path
    fill="#38bdf8"
    d="M.375 188.35c0 12.89 4.36 24.76 11.68 34.23-3.19-5.08-5.54-10.8-6.82-17.03C-.02 179.72 15.22 154.47 39.79 146.65 19.09 156.52 6.93 179.51 11.71 203c.35 1.71.78 3.39 1.29 5-.23-2.08-.36-4.2-.36-6.35 0-30.93 25.07-56 56-56 13.03 0 25.02 4.46 34.53 11.91-10.01-15.21-27.23-25.26-46.8-25.26-30.93 0-56 25.07-56 56Z"
  />
  <path
    fill="#2563eb"
    d="M74.52 112.88c-12.89 0-24.76 4.36-34.23 11.68 5.08-3.19 10.8-5.54 17.02-6.82 25.84-5.26 51.09 9.94 58.93 34.52-9.86-20.7-32.86-32.85-56.33-28.09-1.71.35-3.39.78-5 1.29 2.08-.23 4.2-.36 6.35-.36 30.93 0 56 25.07 56 56 0 13.03-4.45 25.02-11.91 34.53 15.21-10.01 25.26-27.23 25.26-46.8 0-30.93-25.07-56-56-56Z"
  />
</svg>
